<mxfile host="Electron" agent="Mozilla/5.0 (Windows NT 10.0; Win64; x64) AppleWebKit/537.36 (KHTML, like Gecko) draw.io/27.0.9 Chrome/134.0.6998.205 Electron/35.4.0 Safari/537.36" version="27.0.9" pages="3">
  <diagram name="Page-1" id="WReMwzfoxKWZB7nUxB64">
    <mxGraphModel dx="2059" dy="728" grid="1" gridSize="10" guides="1" tooltips="1" connect="1" arrows="1" fold="1" page="1" pageScale="1" pageWidth="850" pageHeight="1100" math="0" shadow="0">
      <root>
        <mxCell id="0" />
        <mxCell id="1" parent="0" />
        <mxCell id="XyUjsrDuOfPW9KOtYGB1-1" value="Formateur" style="swimlane;fontStyle=0;childLayout=stackLayout;horizontal=1;startSize=26;fillColor=none;horizontalStack=0;resizeParent=1;resizeParentMax=0;resizeLast=0;collapsible=1;marginBottom=0;whiteSpace=wrap;html=1;" vertex="1" parent="1">
          <mxGeometry x="-110" y="40" width="140" height="104" as="geometry" />
        </mxCell>
        <mxCell id="XyUjsrDuOfPW9KOtYGB1-2" value="id: int" style="text;strokeColor=none;fillColor=none;align=left;verticalAlign=top;spacingLeft=4;spacingRight=4;overflow=hidden;rotatable=0;points=[[0,0.5],[1,0.5]];portConstraint=eastwest;whiteSpace=wrap;html=1;" vertex="1" parent="XyUjsrDuOfPW9KOtYGB1-1">
          <mxGeometry y="26" width="140" height="26" as="geometry" />
        </mxCell>
        <mxCell id="XyUjsrDuOfPW9KOtYGB1-3" value="attr: string" style="text;strokeColor=none;fillColor=none;align=left;verticalAlign=top;spacingLeft=4;spacingRight=4;overflow=hidden;rotatable=0;points=[[0,0.5],[1,0.5]];portConstraint=eastwest;whiteSpace=wrap;html=1;" vertex="1" parent="XyUjsrDuOfPW9KOtYGB1-1">
          <mxGeometry y="52" width="140" height="26" as="geometry" />
        </mxCell>
        <mxCell id="XyUjsrDuOfPW9KOtYGB1-4" value="attr2: string" style="text;strokeColor=none;fillColor=none;align=left;verticalAlign=top;spacingLeft=4;spacingRight=4;overflow=hidden;rotatable=0;points=[[0,0.5],[1,0.5]];portConstraint=eastwest;whiteSpace=wrap;html=1;" vertex="1" parent="XyUjsrDuOfPW9KOtYGB1-1">
          <mxGeometry y="78" width="140" height="26" as="geometry" />
        </mxCell>
        <mxCell id="XyUjsrDuOfPW9KOtYGB1-15" style="edgeStyle=orthogonalEdgeStyle;rounded=0;orthogonalLoop=1;jettySize=auto;html=1;endArrow=none;startFill=0;curved=1;" edge="1" parent="1" source="XyUjsrDuOfPW9KOtYGB1-9" target="XyUjsrDuOfPW9KOtYGB1-13">
          <mxGeometry relative="1" as="geometry" />
        </mxCell>
        <mxCell id="XyUjsrDuOfPW9KOtYGB1-17" value="0,n" style="edgeLabel;html=1;align=center;verticalAlign=middle;resizable=0;points=[];" vertex="1" connectable="0" parent="XyUjsrDuOfPW9KOtYGB1-15">
          <mxGeometry x="-0.4111" y="-3" relative="1" as="geometry">
            <mxPoint as="offset" />
          </mxGeometry>
        </mxCell>
        <mxCell id="XyUjsrDuOfPW9KOtYGB1-9" value="Cours" style="swimlane;fontStyle=0;childLayout=stackLayout;horizontal=1;startSize=26;fillColor=none;horizontalStack=0;resizeParent=1;resizeParentMax=0;resizeLast=0;collapsible=1;marginBottom=0;whiteSpace=wrap;html=1;" vertex="1" parent="1">
          <mxGeometry x="420" y="58" width="140" height="104" as="geometry" />
        </mxCell>
        <mxCell id="XyUjsrDuOfPW9KOtYGB1-10" value="id: int" style="text;strokeColor=none;fillColor=none;align=left;verticalAlign=top;spacingLeft=4;spacingRight=4;overflow=hidden;rotatable=0;points=[[0,0.5],[1,0.5]];portConstraint=eastwest;whiteSpace=wrap;html=1;" vertex="1" parent="XyUjsrDuOfPW9KOtYGB1-9">
          <mxGeometry y="26" width="140" height="26" as="geometry" />
        </mxCell>
        <mxCell id="XyUjsrDuOfPW9KOtYGB1-11" value="attr: string" style="text;strokeColor=none;fillColor=none;align=left;verticalAlign=top;spacingLeft=4;spacingRight=4;overflow=hidden;rotatable=0;points=[[0,0.5],[1,0.5]];portConstraint=eastwest;whiteSpace=wrap;html=1;" vertex="1" parent="XyUjsrDuOfPW9KOtYGB1-9">
          <mxGeometry y="52" width="140" height="26" as="geometry" />
        </mxCell>
        <mxCell id="XyUjsrDuOfPW9KOtYGB1-12" value="attr2: string" style="text;strokeColor=none;fillColor=none;align=left;verticalAlign=top;spacingLeft=4;spacingRight=4;overflow=hidden;rotatable=0;points=[[0,0.5],[1,0.5]];portConstraint=eastwest;whiteSpace=wrap;html=1;" vertex="1" parent="XyUjsrDuOfPW9KOtYGB1-9">
          <mxGeometry y="78" width="140" height="26" as="geometry" />
        </mxCell>
        <mxCell id="XyUjsrDuOfPW9KOtYGB1-13" value="donne" style="ellipse;whiteSpace=wrap;html=1;" vertex="1" parent="1">
          <mxGeometry x="160" y="90" width="110" height="40" as="geometry" />
        </mxCell>
        <mxCell id="XyUjsrDuOfPW9KOtYGB1-14" style="edgeStyle=orthogonalEdgeStyle;rounded=0;orthogonalLoop=1;jettySize=auto;html=1;endArrow=none;startFill=0;curved=1;" edge="1" parent="1" source="XyUjsrDuOfPW9KOtYGB1-2" target="XyUjsrDuOfPW9KOtYGB1-13">
          <mxGeometry relative="1" as="geometry" />
        </mxCell>
        <mxCell id="XyUjsrDuOfPW9KOtYGB1-16" value="0,n" style="edgeLabel;html=1;align=center;verticalAlign=middle;resizable=0;points=[];" vertex="1" connectable="0" parent="XyUjsrDuOfPW9KOtYGB1-14">
          <mxGeometry x="-0.8134" y="2" relative="1" as="geometry">
            <mxPoint as="offset" />
          </mxGeometry>
        </mxCell>
        <mxCell id="XyUjsrDuOfPW9KOtYGB1-18" value="Commande" style="swimlane;fontStyle=0;childLayout=stackLayout;horizontal=1;startSize=26;fillColor=none;horizontalStack=0;resizeParent=1;resizeParentMax=0;resizeLast=0;collapsible=1;marginBottom=0;whiteSpace=wrap;html=1;" vertex="1" parent="1">
          <mxGeometry x="-90" y="250" width="140" height="104" as="geometry" />
        </mxCell>
        <mxCell id="XyUjsrDuOfPW9KOtYGB1-19" value="id: int" style="text;strokeColor=none;fillColor=none;align=left;verticalAlign=top;spacingLeft=4;spacingRight=4;overflow=hidden;rotatable=0;points=[[0,0.5],[1,0.5]];portConstraint=eastwest;whiteSpace=wrap;html=1;" vertex="1" parent="XyUjsrDuOfPW9KOtYGB1-18">
          <mxGeometry y="26" width="140" height="26" as="geometry" />
        </mxCell>
        <mxCell id="XyUjsrDuOfPW9KOtYGB1-20" value="attr: string" style="text;strokeColor=none;fillColor=none;align=left;verticalAlign=top;spacingLeft=4;spacingRight=4;overflow=hidden;rotatable=0;points=[[0,0.5],[1,0.5]];portConstraint=eastwest;whiteSpace=wrap;html=1;" vertex="1" parent="XyUjsrDuOfPW9KOtYGB1-18">
          <mxGeometry y="52" width="140" height="26" as="geometry" />
        </mxCell>
        <mxCell id="XyUjsrDuOfPW9KOtYGB1-21" value="attr2: string" style="text;strokeColor=none;fillColor=none;align=left;verticalAlign=top;spacingLeft=4;spacingRight=4;overflow=hidden;rotatable=0;points=[[0,0.5],[1,0.5]];portConstraint=eastwest;whiteSpace=wrap;html=1;" vertex="1" parent="XyUjsrDuOfPW9KOtYGB1-18">
          <mxGeometry y="78" width="140" height="26" as="geometry" />
        </mxCell>
        <mxCell id="XyUjsrDuOfPW9KOtYGB1-22" style="edgeStyle=orthogonalEdgeStyle;rounded=0;orthogonalLoop=1;jettySize=auto;html=1;endArrow=none;startFill=0;curved=1;" edge="1" parent="1" source="XyUjsrDuOfPW9KOtYGB1-24" target="XyUjsrDuOfPW9KOtYGB1-28">
          <mxGeometry relative="1" as="geometry" />
        </mxCell>
        <mxCell id="XyUjsrDuOfPW9KOtYGB1-32" value="0,n" style="edgeLabel;html=1;align=center;verticalAlign=middle;resizable=0;points=[];" vertex="1" connectable="0" parent="XyUjsrDuOfPW9KOtYGB1-22">
          <mxGeometry x="-0.0356" y="3" relative="1" as="geometry">
            <mxPoint as="offset" />
          </mxGeometry>
        </mxCell>
        <mxCell id="XyUjsrDuOfPW9KOtYGB1-24" value="Client" style="swimlane;fontStyle=0;childLayout=stackLayout;horizontal=1;startSize=26;fillColor=none;horizontalStack=0;resizeParent=1;resizeParentMax=0;resizeLast=0;collapsible=1;marginBottom=0;whiteSpace=wrap;html=1;" vertex="1" parent="1">
          <mxGeometry x="440" y="268" width="140" height="104" as="geometry" />
        </mxCell>
        <mxCell id="XyUjsrDuOfPW9KOtYGB1-25" value="id: int" style="text;strokeColor=none;fillColor=none;align=left;verticalAlign=top;spacingLeft=4;spacingRight=4;overflow=hidden;rotatable=0;points=[[0,0.5],[1,0.5]];portConstraint=eastwest;whiteSpace=wrap;html=1;" vertex="1" parent="XyUjsrDuOfPW9KOtYGB1-24">
          <mxGeometry y="26" width="140" height="26" as="geometry" />
        </mxCell>
        <mxCell id="XyUjsrDuOfPW9KOtYGB1-26" value="attr: string" style="text;strokeColor=none;fillColor=none;align=left;verticalAlign=top;spacingLeft=4;spacingRight=4;overflow=hidden;rotatable=0;points=[[0,0.5],[1,0.5]];portConstraint=eastwest;whiteSpace=wrap;html=1;" vertex="1" parent="XyUjsrDuOfPW9KOtYGB1-24">
          <mxGeometry y="52" width="140" height="26" as="geometry" />
        </mxCell>
        <mxCell id="XyUjsrDuOfPW9KOtYGB1-27" value="attr2: string" style="text;strokeColor=none;fillColor=none;align=left;verticalAlign=top;spacingLeft=4;spacingRight=4;overflow=hidden;rotatable=0;points=[[0,0.5],[1,0.5]];portConstraint=eastwest;whiteSpace=wrap;html=1;" vertex="1" parent="XyUjsrDuOfPW9KOtYGB1-24">
          <mxGeometry y="78" width="140" height="26" as="geometry" />
        </mxCell>
        <mxCell id="XyUjsrDuOfPW9KOtYGB1-28" value="est faite" style="ellipse;whiteSpace=wrap;html=1;" vertex="1" parent="1">
          <mxGeometry x="180" y="300" width="110" height="40" as="geometry" />
        </mxCell>
        <mxCell id="XyUjsrDuOfPW9KOtYGB1-29" style="edgeStyle=orthogonalEdgeStyle;rounded=0;orthogonalLoop=1;jettySize=auto;html=1;endArrow=none;startFill=0;curved=1;" edge="1" parent="1" source="XyUjsrDuOfPW9KOtYGB1-19" target="XyUjsrDuOfPW9KOtYGB1-28">
          <mxGeometry relative="1" as="geometry" />
        </mxCell>
        <mxCell id="XyUjsrDuOfPW9KOtYGB1-31" value="1,1" style="edgeLabel;html=1;align=center;verticalAlign=middle;resizable=0;points=[];" vertex="1" connectable="0" parent="XyUjsrDuOfPW9KOtYGB1-29">
          <mxGeometry x="-0.5321" y="-2" relative="1" as="geometry">
            <mxPoint y="1" as="offset" />
          </mxGeometry>
        </mxCell>
        <mxCell id="XyUjsrDuOfPW9KOtYGB1-33" value="Personne" style="swimlane;fontStyle=0;childLayout=stackLayout;horizontal=1;startSize=26;fillColor=none;horizontalStack=0;resizeParent=1;resizeParentMax=0;resizeLast=0;collapsible=1;marginBottom=0;whiteSpace=wrap;html=1;" vertex="1" parent="1">
          <mxGeometry x="-80" y="450" width="140" height="104" as="geometry" />
        </mxCell>
        <mxCell id="XyUjsrDuOfPW9KOtYGB1-34" value="id: int" style="text;strokeColor=none;fillColor=none;align=left;verticalAlign=top;spacingLeft=4;spacingRight=4;overflow=hidden;rotatable=0;points=[[0,0.5],[1,0.5]];portConstraint=eastwest;whiteSpace=wrap;html=1;" vertex="1" parent="XyUjsrDuOfPW9KOtYGB1-33">
          <mxGeometry y="26" width="140" height="26" as="geometry" />
        </mxCell>
        <mxCell id="XyUjsrDuOfPW9KOtYGB1-35" value="attr: string" style="text;strokeColor=none;fillColor=none;align=left;verticalAlign=top;spacingLeft=4;spacingRight=4;overflow=hidden;rotatable=0;points=[[0,0.5],[1,0.5]];portConstraint=eastwest;whiteSpace=wrap;html=1;" vertex="1" parent="XyUjsrDuOfPW9KOtYGB1-33">
          <mxGeometry y="52" width="140" height="26" as="geometry" />
        </mxCell>
        <mxCell id="XyUjsrDuOfPW9KOtYGB1-36" value="attr2: string" style="text;strokeColor=none;fillColor=none;align=left;verticalAlign=top;spacingLeft=4;spacingRight=4;overflow=hidden;rotatable=0;points=[[0,0.5],[1,0.5]];portConstraint=eastwest;whiteSpace=wrap;html=1;" vertex="1" parent="XyUjsrDuOfPW9KOtYGB1-33">
          <mxGeometry y="78" width="140" height="26" as="geometry" />
        </mxCell>
        <mxCell id="XyUjsrDuOfPW9KOtYGB1-37" style="edgeStyle=orthogonalEdgeStyle;rounded=0;orthogonalLoop=1;jettySize=auto;html=1;endArrow=none;startFill=0;curved=1;" edge="1" parent="1" source="XyUjsrDuOfPW9KOtYGB1-39" target="XyUjsrDuOfPW9KOtYGB1-43">
          <mxGeometry relative="1" as="geometry" />
        </mxCell>
        <mxCell id="XyUjsrDuOfPW9KOtYGB1-47" value="1,1" style="edgeLabel;html=1;align=center;verticalAlign=middle;resizable=0;points=[];" vertex="1" connectable="0" parent="XyUjsrDuOfPW9KOtYGB1-37">
          <mxGeometry x="0.0333" y="1" relative="1" as="geometry">
            <mxPoint as="offset" />
          </mxGeometry>
        </mxCell>
        <mxCell id="XyUjsrDuOfPW9KOtYGB1-39" value="Plante" style="swimlane;fontStyle=0;childLayout=stackLayout;horizontal=1;startSize=26;fillColor=none;horizontalStack=0;resizeParent=1;resizeParentMax=0;resizeLast=0;collapsible=1;marginBottom=0;whiteSpace=wrap;html=1;" vertex="1" parent="1">
          <mxGeometry x="450" y="468" width="140" height="104" as="geometry" />
        </mxCell>
        <mxCell id="XyUjsrDuOfPW9KOtYGB1-40" value="id: int" style="text;strokeColor=none;fillColor=none;align=left;verticalAlign=top;spacingLeft=4;spacingRight=4;overflow=hidden;rotatable=0;points=[[0,0.5],[1,0.5]];portConstraint=eastwest;whiteSpace=wrap;html=1;" vertex="1" parent="XyUjsrDuOfPW9KOtYGB1-39">
          <mxGeometry y="26" width="140" height="26" as="geometry" />
        </mxCell>
        <mxCell id="XyUjsrDuOfPW9KOtYGB1-41" value="attr: string" style="text;strokeColor=none;fillColor=none;align=left;verticalAlign=top;spacingLeft=4;spacingRight=4;overflow=hidden;rotatable=0;points=[[0,0.5],[1,0.5]];portConstraint=eastwest;whiteSpace=wrap;html=1;" vertex="1" parent="XyUjsrDuOfPW9KOtYGB1-39">
          <mxGeometry y="52" width="140" height="26" as="geometry" />
        </mxCell>
        <mxCell id="XyUjsrDuOfPW9KOtYGB1-42" value="attr2: string" style="text;strokeColor=none;fillColor=none;align=left;verticalAlign=top;spacingLeft=4;spacingRight=4;overflow=hidden;rotatable=0;points=[[0,0.5],[1,0.5]];portConstraint=eastwest;whiteSpace=wrap;html=1;" vertex="1" parent="XyUjsrDuOfPW9KOtYGB1-39">
          <mxGeometry y="78" width="140" height="26" as="geometry" />
        </mxCell>
        <mxCell id="XyUjsrDuOfPW9KOtYGB1-43" value="plante" style="ellipse;whiteSpace=wrap;html=1;" vertex="1" parent="1">
          <mxGeometry x="190" y="500" width="110" height="40" as="geometry" />
        </mxCell>
        <mxCell id="XyUjsrDuOfPW9KOtYGB1-44" style="edgeStyle=orthogonalEdgeStyle;rounded=0;orthogonalLoop=1;jettySize=auto;html=1;endArrow=none;startFill=0;curved=1;" edge="1" parent="1" source="XyUjsrDuOfPW9KOtYGB1-34" target="XyUjsrDuOfPW9KOtYGB1-43">
          <mxGeometry relative="1" as="geometry" />
        </mxCell>
        <mxCell id="XyUjsrDuOfPW9KOtYGB1-46" value="0,n" style="edgeLabel;html=1;align=center;verticalAlign=middle;resizable=0;points=[];" vertex="1" connectable="0" parent="XyUjsrDuOfPW9KOtYGB1-44">
          <mxGeometry x="-0.0911" y="-5" relative="1" as="geometry">
            <mxPoint as="offset" />
          </mxGeometry>
        </mxCell>
        <mxCell id="XyUjsrDuOfPW9KOtYGB1-48" value="Musicien" style="swimlane;fontStyle=0;childLayout=stackLayout;horizontal=1;startSize=26;fillColor=none;horizontalStack=0;resizeParent=1;resizeParentMax=0;resizeLast=0;collapsible=1;marginBottom=0;whiteSpace=wrap;html=1;" vertex="1" parent="1">
          <mxGeometry x="-40" y="640" width="140" height="104" as="geometry" />
        </mxCell>
        <mxCell id="XyUjsrDuOfPW9KOtYGB1-49" value="id: int" style="text;strokeColor=none;fillColor=none;align=left;verticalAlign=top;spacingLeft=4;spacingRight=4;overflow=hidden;rotatable=0;points=[[0,0.5],[1,0.5]];portConstraint=eastwest;whiteSpace=wrap;html=1;" vertex="1" parent="XyUjsrDuOfPW9KOtYGB1-48">
          <mxGeometry y="26" width="140" height="26" as="geometry" />
        </mxCell>
        <mxCell id="XyUjsrDuOfPW9KOtYGB1-50" value="attr: string" style="text;strokeColor=none;fillColor=none;align=left;verticalAlign=top;spacingLeft=4;spacingRight=4;overflow=hidden;rotatable=0;points=[[0,0.5],[1,0.5]];portConstraint=eastwest;whiteSpace=wrap;html=1;" vertex="1" parent="XyUjsrDuOfPW9KOtYGB1-48">
          <mxGeometry y="52" width="140" height="26" as="geometry" />
        </mxCell>
        <mxCell id="XyUjsrDuOfPW9KOtYGB1-51" value="attr2: string" style="text;strokeColor=none;fillColor=none;align=left;verticalAlign=top;spacingLeft=4;spacingRight=4;overflow=hidden;rotatable=0;points=[[0,0.5],[1,0.5]];portConstraint=eastwest;whiteSpace=wrap;html=1;" vertex="1" parent="XyUjsrDuOfPW9KOtYGB1-48">
          <mxGeometry y="78" width="140" height="26" as="geometry" />
        </mxCell>
        <mxCell id="XyUjsrDuOfPW9KOtYGB1-52" style="edgeStyle=orthogonalEdgeStyle;rounded=0;orthogonalLoop=1;jettySize=auto;html=1;endArrow=none;startFill=0;curved=1;" edge="1" parent="1" source="XyUjsrDuOfPW9KOtYGB1-54" target="XyUjsrDuOfPW9KOtYGB1-58">
          <mxGeometry relative="1" as="geometry" />
        </mxCell>
        <mxCell id="XyUjsrDuOfPW9KOtYGB1-62" value="0,n" style="edgeLabel;html=1;align=center;verticalAlign=middle;resizable=0;points=[];" vertex="1" connectable="0" parent="XyUjsrDuOfPW9KOtYGB1-52">
          <mxGeometry x="-0.1219" y="1" relative="1" as="geometry">
            <mxPoint as="offset" />
          </mxGeometry>
        </mxCell>
        <mxCell id="XyUjsrDuOfPW9KOtYGB1-54" value="Instrument" style="swimlane;fontStyle=0;childLayout=stackLayout;horizontal=1;startSize=26;fillColor=none;horizontalStack=0;resizeParent=1;resizeParentMax=0;resizeLast=0;collapsible=1;marginBottom=0;whiteSpace=wrap;html=1;" vertex="1" parent="1">
          <mxGeometry x="450" y="630" width="140" height="104" as="geometry" />
        </mxCell>
        <mxCell id="XyUjsrDuOfPW9KOtYGB1-55" value="id: int" style="text;strokeColor=none;fillColor=none;align=left;verticalAlign=top;spacingLeft=4;spacingRight=4;overflow=hidden;rotatable=0;points=[[0,0.5],[1,0.5]];portConstraint=eastwest;whiteSpace=wrap;html=1;" vertex="1" parent="XyUjsrDuOfPW9KOtYGB1-54">
          <mxGeometry y="26" width="140" height="26" as="geometry" />
        </mxCell>
        <mxCell id="XyUjsrDuOfPW9KOtYGB1-56" value="attr: string" style="text;strokeColor=none;fillColor=none;align=left;verticalAlign=top;spacingLeft=4;spacingRight=4;overflow=hidden;rotatable=0;points=[[0,0.5],[1,0.5]];portConstraint=eastwest;whiteSpace=wrap;html=1;" vertex="1" parent="XyUjsrDuOfPW9KOtYGB1-54">
          <mxGeometry y="52" width="140" height="26" as="geometry" />
        </mxCell>
        <mxCell id="XyUjsrDuOfPW9KOtYGB1-57" value="attr2: string" style="text;strokeColor=none;fillColor=none;align=left;verticalAlign=top;spacingLeft=4;spacingRight=4;overflow=hidden;rotatable=0;points=[[0,0.5],[1,0.5]];portConstraint=eastwest;whiteSpace=wrap;html=1;" vertex="1" parent="XyUjsrDuOfPW9KOtYGB1-54">
          <mxGeometry y="78" width="140" height="26" as="geometry" />
        </mxCell>
        <mxCell id="XyUjsrDuOfPW9KOtYGB1-58" value="joue" style="ellipse;whiteSpace=wrap;html=1;" vertex="1" parent="1">
          <mxGeometry x="210" y="666" width="110" height="40" as="geometry" />
        </mxCell>
        <mxCell id="XyUjsrDuOfPW9KOtYGB1-59" style="edgeStyle=orthogonalEdgeStyle;rounded=0;orthogonalLoop=1;jettySize=auto;html=1;endArrow=none;startFill=0;curved=1;" edge="1" parent="1" source="XyUjsrDuOfPW9KOtYGB1-49" target="XyUjsrDuOfPW9KOtYGB1-58">
          <mxGeometry relative="1" as="geometry" />
        </mxCell>
        <mxCell id="XyUjsrDuOfPW9KOtYGB1-61" value="1,n" style="edgeLabel;html=1;align=center;verticalAlign=middle;resizable=0;points=[];" vertex="1" connectable="0" parent="XyUjsrDuOfPW9KOtYGB1-59">
          <mxGeometry x="-0.037" y="2" relative="1" as="geometry">
            <mxPoint as="offset" />
          </mxGeometry>
        </mxCell>
        <mxCell id="XyUjsrDuOfPW9KOtYGB1-63" value="Reservation" style="swimlane;fontStyle=0;childLayout=stackLayout;horizontal=1;startSize=26;fillColor=none;horizontalStack=0;resizeParent=1;resizeParentMax=0;resizeLast=0;collapsible=1;marginBottom=0;whiteSpace=wrap;html=1;" vertex="1" parent="1">
          <mxGeometry x="180" y="760" width="140" height="104" as="geometry" />
        </mxCell>
        <mxCell id="XyUjsrDuOfPW9KOtYGB1-64" value="id: int" style="text;strokeColor=none;fillColor=none;align=left;verticalAlign=top;spacingLeft=4;spacingRight=4;overflow=hidden;rotatable=0;points=[[0,0.5],[1,0.5]];portConstraint=eastwest;whiteSpace=wrap;html=1;" vertex="1" parent="XyUjsrDuOfPW9KOtYGB1-63">
          <mxGeometry y="26" width="140" height="26" as="geometry" />
        </mxCell>
        <mxCell id="XyUjsrDuOfPW9KOtYGB1-65" value="attr: string" style="text;strokeColor=none;fillColor=none;align=left;verticalAlign=top;spacingLeft=4;spacingRight=4;overflow=hidden;rotatable=0;points=[[0,0.5],[1,0.5]];portConstraint=eastwest;whiteSpace=wrap;html=1;" vertex="1" parent="XyUjsrDuOfPW9KOtYGB1-63">
          <mxGeometry y="52" width="140" height="26" as="geometry" />
        </mxCell>
        <mxCell id="XyUjsrDuOfPW9KOtYGB1-66" value="attr2: string" style="text;strokeColor=none;fillColor=none;align=left;verticalAlign=top;spacingLeft=4;spacingRight=4;overflow=hidden;rotatable=0;points=[[0,0.5],[1,0.5]];portConstraint=eastwest;whiteSpace=wrap;html=1;" vertex="1" parent="XyUjsrDuOfPW9KOtYGB1-63">
          <mxGeometry y="78" width="140" height="26" as="geometry" />
        </mxCell>
        <mxCell id="XyUjsrDuOfPW9KOtYGB1-67" style="edgeStyle=orthogonalEdgeStyle;rounded=0;orthogonalLoop=1;jettySize=auto;html=1;endArrow=none;startFill=0;curved=1;" edge="1" parent="1" source="XyUjsrDuOfPW9KOtYGB1-69" target="XyUjsrDuOfPW9KOtYGB1-73">
          <mxGeometry relative="1" as="geometry" />
        </mxCell>
        <mxCell id="XyUjsrDuOfPW9KOtYGB1-77" value="0,n" style="edgeLabel;html=1;align=center;verticalAlign=middle;resizable=0;points=[];" vertex="1" connectable="0" parent="XyUjsrDuOfPW9KOtYGB1-67">
          <mxGeometry x="-0.1791" y="3" relative="1" as="geometry">
            <mxPoint as="offset" />
          </mxGeometry>
        </mxCell>
        <mxCell id="XyUjsrDuOfPW9KOtYGB1-69" value="Voiture" style="swimlane;fontStyle=0;childLayout=stackLayout;horizontal=1;startSize=26;fillColor=none;horizontalStack=0;resizeParent=1;resizeParentMax=0;resizeLast=0;collapsible=1;marginBottom=0;whiteSpace=wrap;html=1;" vertex="1" parent="1">
          <mxGeometry x="590" y="800" width="140" height="104" as="geometry" />
        </mxCell>
        <mxCell id="XyUjsrDuOfPW9KOtYGB1-70" value="id: int" style="text;strokeColor=none;fillColor=none;align=left;verticalAlign=top;spacingLeft=4;spacingRight=4;overflow=hidden;rotatable=0;points=[[0,0.5],[1,0.5]];portConstraint=eastwest;whiteSpace=wrap;html=1;" vertex="1" parent="XyUjsrDuOfPW9KOtYGB1-69">
          <mxGeometry y="26" width="140" height="26" as="geometry" />
        </mxCell>
        <mxCell id="XyUjsrDuOfPW9KOtYGB1-71" value="attr: string" style="text;strokeColor=none;fillColor=none;align=left;verticalAlign=top;spacingLeft=4;spacingRight=4;overflow=hidden;rotatable=0;points=[[0,0.5],[1,0.5]];portConstraint=eastwest;whiteSpace=wrap;html=1;" vertex="1" parent="XyUjsrDuOfPW9KOtYGB1-69">
          <mxGeometry y="52" width="140" height="26" as="geometry" />
        </mxCell>
        <mxCell id="XyUjsrDuOfPW9KOtYGB1-72" value="attr2: string" style="text;strokeColor=none;fillColor=none;align=left;verticalAlign=top;spacingLeft=4;spacingRight=4;overflow=hidden;rotatable=0;points=[[0,0.5],[1,0.5]];portConstraint=eastwest;whiteSpace=wrap;html=1;" vertex="1" parent="XyUjsrDuOfPW9KOtYGB1-69">
          <mxGeometry y="78" width="140" height="26" as="geometry" />
        </mxCell>
        <mxCell id="XyUjsrDuOfPW9KOtYGB1-73" value="concerne" style="ellipse;whiteSpace=wrap;html=1;" vertex="1" parent="1">
          <mxGeometry x="370" y="800" width="110" height="40" as="geometry" />
        </mxCell>
        <mxCell id="XyUjsrDuOfPW9KOtYGB1-74" style="edgeStyle=orthogonalEdgeStyle;rounded=0;orthogonalLoop=1;jettySize=auto;html=1;endArrow=none;startFill=0;curved=1;" edge="1" parent="1" source="XyUjsrDuOfPW9KOtYGB1-64" target="XyUjsrDuOfPW9KOtYGB1-73">
          <mxGeometry relative="1" as="geometry" />
        </mxCell>
        <mxCell id="XyUjsrDuOfPW9KOtYGB1-76" value="1,1" style="edgeLabel;html=1;align=center;verticalAlign=middle;resizable=0;points=[];" vertex="1" connectable="0" parent="XyUjsrDuOfPW9KOtYGB1-74">
          <mxGeometry x="-0.302" y="2" relative="1" as="geometry">
            <mxPoint as="offset" />
          </mxGeometry>
        </mxCell>
        <mxCell id="XyUjsrDuOfPW9KOtYGB1-78" value="Client" style="swimlane;fontStyle=0;childLayout=stackLayout;horizontal=1;startSize=26;fillColor=none;horizontalStack=0;resizeParent=1;resizeParentMax=0;resizeLast=0;collapsible=1;marginBottom=0;whiteSpace=wrap;html=1;" vertex="1" parent="1">
          <mxGeometry x="-250" y="780" width="140" height="104" as="geometry" />
        </mxCell>
        <mxCell id="XyUjsrDuOfPW9KOtYGB1-79" value="id: int" style="text;strokeColor=none;fillColor=none;align=left;verticalAlign=top;spacingLeft=4;spacingRight=4;overflow=hidden;rotatable=0;points=[[0,0.5],[1,0.5]];portConstraint=eastwest;whiteSpace=wrap;html=1;" vertex="1" parent="XyUjsrDuOfPW9KOtYGB1-78">
          <mxGeometry y="26" width="140" height="26" as="geometry" />
        </mxCell>
        <mxCell id="XyUjsrDuOfPW9KOtYGB1-80" value="attr: string" style="text;strokeColor=none;fillColor=none;align=left;verticalAlign=top;spacingLeft=4;spacingRight=4;overflow=hidden;rotatable=0;points=[[0,0.5],[1,0.5]];portConstraint=eastwest;whiteSpace=wrap;html=1;" vertex="1" parent="XyUjsrDuOfPW9KOtYGB1-78">
          <mxGeometry y="52" width="140" height="26" as="geometry" />
        </mxCell>
        <mxCell id="XyUjsrDuOfPW9KOtYGB1-81" value="attr2: string" style="text;strokeColor=none;fillColor=none;align=left;verticalAlign=top;spacingLeft=4;spacingRight=4;overflow=hidden;rotatable=0;points=[[0,0.5],[1,0.5]];portConstraint=eastwest;whiteSpace=wrap;html=1;" vertex="1" parent="XyUjsrDuOfPW9KOtYGB1-78">
          <mxGeometry y="78" width="140" height="26" as="geometry" />
        </mxCell>
        <mxCell id="XyUjsrDuOfPW9KOtYGB1-82" style="edgeStyle=orthogonalEdgeStyle;rounded=0;orthogonalLoop=1;jettySize=auto;html=1;endArrow=none;startFill=0;curved=1;" edge="1" parent="1" target="XyUjsrDuOfPW9KOtYGB1-84" source="XyUjsrDuOfPW9KOtYGB1-63">
          <mxGeometry relative="1" as="geometry">
            <mxPoint x="500.83333333333326" y="972" as="sourcePoint" />
          </mxGeometry>
        </mxCell>
        <mxCell id="XyUjsrDuOfPW9KOtYGB1-91" value="1,1" style="edgeLabel;html=1;align=center;verticalAlign=middle;resizable=0;points=[];" vertex="1" connectable="0" parent="XyUjsrDuOfPW9KOtYGB1-82">
          <mxGeometry x="0.2292" y="2" relative="1" as="geometry">
            <mxPoint as="offset" />
          </mxGeometry>
        </mxCell>
        <mxCell id="XyUjsrDuOfPW9KOtYGB1-84" value="fait" style="ellipse;whiteSpace=wrap;html=1;" vertex="1" parent="1">
          <mxGeometry x="-29.996666666666727" y="780" width="110" height="40" as="geometry" />
        </mxCell>
        <mxCell id="XyUjsrDuOfPW9KOtYGB1-88" style="edgeStyle=orthogonalEdgeStyle;rounded=0;orthogonalLoop=1;jettySize=auto;html=1;endArrow=none;startFill=0;curved=1;" edge="1" parent="1" source="XyUjsrDuOfPW9KOtYGB1-84" target="XyUjsrDuOfPW9KOtYGB1-78">
          <mxGeometry relative="1" as="geometry">
            <mxPoint x="264.83333333333326" y="941.5" as="sourcePoint" />
            <mxPoint x="100" y="929.5" as="targetPoint" />
          </mxGeometry>
        </mxCell>
        <mxCell id="XyUjsrDuOfPW9KOtYGB1-90" value="0,n" style="edgeLabel;html=1;align=center;verticalAlign=middle;resizable=0;points=[];" vertex="1" connectable="0" parent="XyUjsrDuOfPW9KOtYGB1-88">
          <mxGeometry x="-0.0773" y="-1" relative="1" as="geometry">
            <mxPoint as="offset" />
          </mxGeometry>
        </mxCell>
      </root>
    </mxGraphModel>
  </diagram>
  <diagram id="EMkfAH3d7UA1eEwXXp6I" name="Page-2">
    <mxGraphModel dx="709" dy="427" grid="1" gridSize="10" guides="1" tooltips="1" connect="1" arrows="1" fold="1" page="1" pageScale="1" pageWidth="827" pageHeight="1169" math="0" shadow="0">
      <root>
        <mxCell id="0" />
        <mxCell id="1" parent="0" />
        <mxCell id="zGR7t40iRB6UTrrgQn2q-1" value="Formateur" style="swimlane;fontStyle=0;childLayout=stackLayout;horizontal=1;startSize=26;fillColor=none;horizontalStack=0;resizeParent=1;resizeParentMax=0;resizeLast=0;collapsible=1;marginBottom=0;whiteSpace=wrap;html=1;" vertex="1" parent="1">
          <mxGeometry x="30" y="320" width="140" height="104" as="geometry" />
        </mxCell>
        <mxCell id="zGR7t40iRB6UTrrgQn2q-2" value="id: int" style="text;strokeColor=none;fillColor=none;align=left;verticalAlign=top;spacingLeft=4;spacingRight=4;overflow=hidden;rotatable=0;points=[[0,0.5],[1,0.5]];portConstraint=eastwest;whiteSpace=wrap;html=1;" vertex="1" parent="zGR7t40iRB6UTrrgQn2q-1">
          <mxGeometry y="26" width="140" height="26" as="geometry" />
        </mxCell>
        <mxCell id="zGR7t40iRB6UTrrgQn2q-3" value="attr: string" style="text;strokeColor=none;fillColor=none;align=left;verticalAlign=top;spacingLeft=4;spacingRight=4;overflow=hidden;rotatable=0;points=[[0,0.5],[1,0.5]];portConstraint=eastwest;whiteSpace=wrap;html=1;" vertex="1" parent="zGR7t40iRB6UTrrgQn2q-1">
          <mxGeometry y="52" width="140" height="26" as="geometry" />
        </mxCell>
        <mxCell id="zGR7t40iRB6UTrrgQn2q-4" value="attr2: string" style="text;strokeColor=none;fillColor=none;align=left;verticalAlign=top;spacingLeft=4;spacingRight=4;overflow=hidden;rotatable=0;points=[[0,0.5],[1,0.5]];portConstraint=eastwest;whiteSpace=wrap;html=1;" vertex="1" parent="zGR7t40iRB6UTrrgQn2q-1">
          <mxGeometry y="78" width="140" height="26" as="geometry" />
        </mxCell>
        <mxCell id="zGR7t40iRB6UTrrgQn2q-5" style="edgeStyle=orthogonalEdgeStyle;rounded=0;orthogonalLoop=1;jettySize=auto;html=1;endArrow=none;startFill=0;curved=1;" edge="1" parent="1" source="zGR7t40iRB6UTrrgQn2q-14" target="zGR7t40iRB6UTrrgQn2q-11">
          <mxGeometry relative="1" as="geometry">
            <mxPoint x="570" y="200" as="sourcePoint" />
          </mxGeometry>
        </mxCell>
        <mxCell id="zGR7t40iRB6UTrrgQn2q-6" value="1,n" style="edgeLabel;html=1;align=center;verticalAlign=middle;resizable=0;points=[];" vertex="1" connectable="0" parent="zGR7t40iRB6UTrrgQn2q-5">
          <mxGeometry x="0.0333" y="1" relative="1" as="geometry">
            <mxPoint as="offset" />
          </mxGeometry>
        </mxCell>
        <mxCell id="zGR7t40iRB6UTrrgQn2q-7" value="Salle" style="swimlane;fontStyle=0;childLayout=stackLayout;horizontal=1;startSize=26;fillColor=none;horizontalStack=0;resizeParent=1;resizeParentMax=0;resizeLast=0;collapsible=1;marginBottom=0;whiteSpace=wrap;html=1;" vertex="1" parent="1">
          <mxGeometry x="540" y="320" width="140" height="104" as="geometry" />
        </mxCell>
        <mxCell id="zGR7t40iRB6UTrrgQn2q-8" value="id: int" style="text;strokeColor=none;fillColor=none;align=left;verticalAlign=top;spacingLeft=4;spacingRight=4;overflow=hidden;rotatable=0;points=[[0,0.5],[1,0.5]];portConstraint=eastwest;whiteSpace=wrap;html=1;" vertex="1" parent="zGR7t40iRB6UTrrgQn2q-7">
          <mxGeometry y="26" width="140" height="26" as="geometry" />
        </mxCell>
        <mxCell id="zGR7t40iRB6UTrrgQn2q-9" value="attr: string" style="text;strokeColor=none;fillColor=none;align=left;verticalAlign=top;spacingLeft=4;spacingRight=4;overflow=hidden;rotatable=0;points=[[0,0.5],[1,0.5]];portConstraint=eastwest;whiteSpace=wrap;html=1;" vertex="1" parent="zGR7t40iRB6UTrrgQn2q-7">
          <mxGeometry y="52" width="140" height="26" as="geometry" />
        </mxCell>
        <mxCell id="zGR7t40iRB6UTrrgQn2q-10" value="attr2: string" style="text;strokeColor=none;fillColor=none;align=left;verticalAlign=top;spacingLeft=4;spacingRight=4;overflow=hidden;rotatable=0;points=[[0,0.5],[1,0.5]];portConstraint=eastwest;whiteSpace=wrap;html=1;" vertex="1" parent="zGR7t40iRB6UTrrgQn2q-7">
          <mxGeometry y="78" width="140" height="26" as="geometry" />
        </mxCell>
        <mxCell id="zGR7t40iRB6UTrrgQn2q-11" value="donne" style="ellipse;whiteSpace=wrap;html=1;" vertex="1" parent="1">
          <mxGeometry x="230" y="320" width="110" height="40" as="geometry" />
        </mxCell>
        <mxCell id="zGR7t40iRB6UTrrgQn2q-12" style="edgeStyle=orthogonalEdgeStyle;rounded=0;orthogonalLoop=1;jettySize=auto;html=1;endArrow=none;startFill=0;curved=1;" edge="1" parent="1" source="zGR7t40iRB6UTrrgQn2q-1" target="zGR7t40iRB6UTrrgQn2q-11">
          <mxGeometry relative="1" as="geometry">
            <mxPoint x="290" y="140" as="sourcePoint" />
          </mxGeometry>
        </mxCell>
        <mxCell id="zGR7t40iRB6UTrrgQn2q-13" value="0,n" style="edgeLabel;html=1;align=center;verticalAlign=middle;resizable=0;points=[];" vertex="1" connectable="0" parent="zGR7t40iRB6UTrrgQn2q-12">
          <mxGeometry x="-0.0911" y="-5" relative="1" as="geometry">
            <mxPoint as="offset" />
          </mxGeometry>
        </mxCell>
        <mxCell id="zGR7t40iRB6UTrrgQn2q-14" value="Cours" style="swimlane;fontStyle=0;childLayout=stackLayout;horizontal=1;startSize=26;fillColor=none;horizontalStack=0;resizeParent=1;resizeParentMax=0;resizeLast=0;collapsible=1;marginBottom=0;whiteSpace=wrap;html=1;" vertex="1" parent="1">
          <mxGeometry x="274" y="450" width="140" height="104" as="geometry" />
        </mxCell>
        <mxCell id="zGR7t40iRB6UTrrgQn2q-15" value="id: int" style="text;strokeColor=none;fillColor=none;align=left;verticalAlign=top;spacingLeft=4;spacingRight=4;overflow=hidden;rotatable=0;points=[[0,0.5],[1,0.5]];portConstraint=eastwest;whiteSpace=wrap;html=1;" vertex="1" parent="zGR7t40iRB6UTrrgQn2q-14">
          <mxGeometry y="26" width="140" height="26" as="geometry" />
        </mxCell>
        <mxCell id="zGR7t40iRB6UTrrgQn2q-16" value="attr: string" style="text;strokeColor=none;fillColor=none;align=left;verticalAlign=top;spacingLeft=4;spacingRight=4;overflow=hidden;rotatable=0;points=[[0,0.5],[1,0.5]];portConstraint=eastwest;whiteSpace=wrap;html=1;" vertex="1" parent="zGR7t40iRB6UTrrgQn2q-14">
          <mxGeometry y="52" width="140" height="26" as="geometry" />
        </mxCell>
        <mxCell id="zGR7t40iRB6UTrrgQn2q-17" value="attr2: string" style="text;strokeColor=none;fillColor=none;align=left;verticalAlign=top;spacingLeft=4;spacingRight=4;overflow=hidden;rotatable=0;points=[[0,0.5],[1,0.5]];portConstraint=eastwest;whiteSpace=wrap;html=1;" vertex="1" parent="zGR7t40iRB6UTrrgQn2q-14">
          <mxGeometry y="78" width="140" height="26" as="geometry" />
        </mxCell>
        <mxCell id="zGR7t40iRB6UTrrgQn2q-18" style="edgeStyle=orthogonalEdgeStyle;rounded=0;orthogonalLoop=1;jettySize=auto;html=1;endArrow=none;startFill=0;curved=1;" edge="1" parent="1" target="zGR7t40iRB6UTrrgQn2q-20" source="zGR7t40iRB6UTrrgQn2q-7">
          <mxGeometry relative="1" as="geometry">
            <mxPoint x="584" y="290" as="sourcePoint" />
          </mxGeometry>
        </mxCell>
        <mxCell id="zGR7t40iRB6UTrrgQn2q-19" value="1,n" style="edgeLabel;html=1;align=center;verticalAlign=middle;resizable=0;points=[];" vertex="1" connectable="0" parent="zGR7t40iRB6UTrrgQn2q-18">
          <mxGeometry x="0.0333" y="1" relative="1" as="geometry">
            <mxPoint as="offset" />
          </mxGeometry>
        </mxCell>
        <mxCell id="zGR7t40iRB6UTrrgQn2q-20" value="donne" style="ellipse;whiteSpace=wrap;html=1;" vertex="1" parent="1">
          <mxGeometry x="530" y="482" width="110" height="40" as="geometry" />
        </mxCell>
        <mxCell id="zGR7t40iRB6UTrrgQn2q-21" style="edgeStyle=orthogonalEdgeStyle;rounded=0;orthogonalLoop=1;jettySize=auto;html=1;endArrow=none;startFill=0;curved=1;" edge="1" parent="1" target="zGR7t40iRB6UTrrgQn2q-20" source="zGR7t40iRB6UTrrgQn2q-14">
          <mxGeometry relative="1" as="geometry">
            <mxPoint x="410" y="212" as="sourcePoint" />
          </mxGeometry>
        </mxCell>
        <mxCell id="zGR7t40iRB6UTrrgQn2q-22" value="0,n" style="edgeLabel;html=1;align=center;verticalAlign=middle;resizable=0;points=[];" vertex="1" connectable="0" parent="zGR7t40iRB6UTrrgQn2q-21">
          <mxGeometry x="-0.0911" y="-5" relative="1" as="geometry">
            <mxPoint as="offset" />
          </mxGeometry>
        </mxCell>
        <mxCell id="zGR7t40iRB6UTrrgQn2q-23" value="Formateur" style="swimlane;fontStyle=0;childLayout=stackLayout;horizontal=1;startSize=26;fillColor=none;horizontalStack=0;resizeParent=1;resizeParentMax=0;resizeLast=0;collapsible=1;marginBottom=0;whiteSpace=wrap;html=1;" vertex="1" parent="1">
          <mxGeometry x="60" y="640" width="140" height="104" as="geometry" />
        </mxCell>
        <mxCell id="zGR7t40iRB6UTrrgQn2q-24" value="id: int" style="text;strokeColor=none;fillColor=none;align=left;verticalAlign=top;spacingLeft=4;spacingRight=4;overflow=hidden;rotatable=0;points=[[0,0.5],[1,0.5]];portConstraint=eastwest;whiteSpace=wrap;html=1;" vertex="1" parent="zGR7t40iRB6UTrrgQn2q-23">
          <mxGeometry y="26" width="140" height="26" as="geometry" />
        </mxCell>
        <mxCell id="zGR7t40iRB6UTrrgQn2q-25" value="attr: string" style="text;strokeColor=none;fillColor=none;align=left;verticalAlign=top;spacingLeft=4;spacingRight=4;overflow=hidden;rotatable=0;points=[[0,0.5],[1,0.5]];portConstraint=eastwest;whiteSpace=wrap;html=1;" vertex="1" parent="zGR7t40iRB6UTrrgQn2q-23">
          <mxGeometry y="52" width="140" height="26" as="geometry" />
        </mxCell>
        <mxCell id="zGR7t40iRB6UTrrgQn2q-26" value="attr2: string" style="text;strokeColor=none;fillColor=none;align=left;verticalAlign=top;spacingLeft=4;spacingRight=4;overflow=hidden;rotatable=0;points=[[0,0.5],[1,0.5]];portConstraint=eastwest;whiteSpace=wrap;html=1;" vertex="1" parent="zGR7t40iRB6UTrrgQn2q-23">
          <mxGeometry y="78" width="140" height="26" as="geometry" />
        </mxCell>
        <mxCell id="zGR7t40iRB6UTrrgQn2q-27" style="edgeStyle=orthogonalEdgeStyle;rounded=0;orthogonalLoop=1;jettySize=auto;html=1;endArrow=none;startFill=0;curved=1;" edge="1" parent="1" source="zGR7t40iRB6UTrrgQn2q-36" target="zGR7t40iRB6UTrrgQn2q-33">
          <mxGeometry relative="1" as="geometry">
            <mxPoint x="600" y="520" as="sourcePoint" />
          </mxGeometry>
        </mxCell>
        <mxCell id="zGR7t40iRB6UTrrgQn2q-53" value="1,n" style="edgeLabel;html=1;align=center;verticalAlign=middle;resizable=0;points=[];" vertex="1" connectable="0" parent="zGR7t40iRB6UTrrgQn2q-27">
          <mxGeometry x="0.4439" y="6" relative="1" as="geometry">
            <mxPoint as="offset" />
          </mxGeometry>
        </mxCell>
        <mxCell id="zGR7t40iRB6UTrrgQn2q-29" value="Salle" style="swimlane;fontStyle=0;childLayout=stackLayout;horizontal=1;startSize=26;fillColor=none;horizontalStack=0;resizeParent=1;resizeParentMax=0;resizeLast=0;collapsible=1;marginBottom=0;whiteSpace=wrap;html=1;" vertex="1" parent="1">
          <mxGeometry x="570" y="640" width="140" height="104" as="geometry" />
        </mxCell>
        <mxCell id="zGR7t40iRB6UTrrgQn2q-30" value="id: int" style="text;strokeColor=none;fillColor=none;align=left;verticalAlign=top;spacingLeft=4;spacingRight=4;overflow=hidden;rotatable=0;points=[[0,0.5],[1,0.5]];portConstraint=eastwest;whiteSpace=wrap;html=1;" vertex="1" parent="zGR7t40iRB6UTrrgQn2q-29">
          <mxGeometry y="26" width="140" height="26" as="geometry" />
        </mxCell>
        <mxCell id="zGR7t40iRB6UTrrgQn2q-31" value="attr: string" style="text;strokeColor=none;fillColor=none;align=left;verticalAlign=top;spacingLeft=4;spacingRight=4;overflow=hidden;rotatable=0;points=[[0,0.5],[1,0.5]];portConstraint=eastwest;whiteSpace=wrap;html=1;" vertex="1" parent="zGR7t40iRB6UTrrgQn2q-29">
          <mxGeometry y="52" width="140" height="26" as="geometry" />
        </mxCell>
        <mxCell id="zGR7t40iRB6UTrrgQn2q-32" value="attr2: string" style="text;strokeColor=none;fillColor=none;align=left;verticalAlign=top;spacingLeft=4;spacingRight=4;overflow=hidden;rotatable=0;points=[[0,0.5],[1,0.5]];portConstraint=eastwest;whiteSpace=wrap;html=1;" vertex="1" parent="zGR7t40iRB6UTrrgQn2q-29">
          <mxGeometry y="78" width="140" height="26" as="geometry" />
        </mxCell>
        <mxCell id="zGR7t40iRB6UTrrgQn2q-33" value="donne" style="ellipse;whiteSpace=wrap;html=1;" vertex="1" parent="1">
          <mxGeometry x="320" y="700" width="110" height="40" as="geometry" />
        </mxCell>
        <mxCell id="zGR7t40iRB6UTrrgQn2q-34" style="edgeStyle=orthogonalEdgeStyle;rounded=0;orthogonalLoop=1;jettySize=auto;html=1;endArrow=none;startFill=0;curved=1;" edge="1" parent="1" source="zGR7t40iRB6UTrrgQn2q-23" target="zGR7t40iRB6UTrrgQn2q-33">
          <mxGeometry relative="1" as="geometry">
            <mxPoint x="320" y="460" as="sourcePoint" />
          </mxGeometry>
        </mxCell>
        <mxCell id="zGR7t40iRB6UTrrgQn2q-50" value="1,n&lt;div&gt;&lt;br&gt;&lt;/div&gt;" style="edgeLabel;html=1;align=center;verticalAlign=middle;resizable=0;points=[];" vertex="1" connectable="0" parent="zGR7t40iRB6UTrrgQn2q-34">
          <mxGeometry x="0.0517" relative="1" as="geometry">
            <mxPoint as="offset" />
          </mxGeometry>
        </mxCell>
        <mxCell id="zGR7t40iRB6UTrrgQn2q-36" value="Cours" style="swimlane;fontStyle=0;childLayout=stackLayout;horizontal=1;startSize=26;fillColor=none;horizontalStack=0;resizeParent=1;resizeParentMax=0;resizeLast=0;collapsible=1;marginBottom=0;whiteSpace=wrap;html=1;" vertex="1" parent="1">
          <mxGeometry x="260" y="842" width="140" height="104" as="geometry" />
        </mxCell>
        <mxCell id="zGR7t40iRB6UTrrgQn2q-37" value="id: int" style="text;strokeColor=none;fillColor=none;align=left;verticalAlign=top;spacingLeft=4;spacingRight=4;overflow=hidden;rotatable=0;points=[[0,0.5],[1,0.5]];portConstraint=eastwest;whiteSpace=wrap;html=1;" vertex="1" parent="zGR7t40iRB6UTrrgQn2q-36">
          <mxGeometry y="26" width="140" height="26" as="geometry" />
        </mxCell>
        <mxCell id="zGR7t40iRB6UTrrgQn2q-38" value="attr: string" style="text;strokeColor=none;fillColor=none;align=left;verticalAlign=top;spacingLeft=4;spacingRight=4;overflow=hidden;rotatable=0;points=[[0,0.5],[1,0.5]];portConstraint=eastwest;whiteSpace=wrap;html=1;" vertex="1" parent="zGR7t40iRB6UTrrgQn2q-36">
          <mxGeometry y="52" width="140" height="26" as="geometry" />
        </mxCell>
        <mxCell id="zGR7t40iRB6UTrrgQn2q-39" value="attr2: string" style="text;strokeColor=none;fillColor=none;align=left;verticalAlign=top;spacingLeft=4;spacingRight=4;overflow=hidden;rotatable=0;points=[[0,0.5],[1,0.5]];portConstraint=eastwest;whiteSpace=wrap;html=1;" vertex="1" parent="zGR7t40iRB6UTrrgQn2q-36">
          <mxGeometry y="78" width="140" height="26" as="geometry" />
        </mxCell>
        <mxCell id="zGR7t40iRB6UTrrgQn2q-40" style="edgeStyle=orthogonalEdgeStyle;rounded=0;orthogonalLoop=1;jettySize=auto;html=1;endArrow=none;startFill=0;curved=1;entryX=1;entryY=1;entryDx=0;entryDy=0;" edge="1" parent="1" source="zGR7t40iRB6UTrrgQn2q-29" target="zGR7t40iRB6UTrrgQn2q-33">
          <mxGeometry relative="1" as="geometry">
            <mxPoint x="614" y="610" as="sourcePoint" />
            <mxPoint x="615" y="802" as="targetPoint" />
          </mxGeometry>
        </mxCell>
        <mxCell id="zGR7t40iRB6UTrrgQn2q-51" value="&lt;span style=&quot;color: rgba(0, 0, 0, 0); font-family: monospace; font-size: 0px; text-align: start; background-color: rgb(236, 236, 236);&quot;&gt;%3CmxGraphModel%3E%3Croot%3E%3CmxCell%20id%3D%220%22%2F%3E%3CmxCell%20id%3D%221%22%20parent%3D%220%22%2F%3E%3CmxCell%20id%3D%222%22%20value%3D%221%2Cn%26lt%3Bdiv%26gt%3B%26lt%3Bbr%26gt%3B%26lt%3B%2Fdiv%26gt%3B%22%20style%3D%22edgeLabel%3Bhtml%3D1%3Balign%3Dcenter%3BverticalAlign%3Dmiddle%3Bresizable%3D0%3Bpoints%3D%5B%5D%3B%22%20vertex%3D%221%22%20connectable%3D%220%22%20parent%3D%221%22%3E%3CmxGeometry%20x%3D%22260.0344827586207%22%20y%3D%22709.9310344827586%22%20as%3D%22geometry%22%2F%3E%3C%2FmxCell%3E%3C%2Froot%3E%3C%2FmxGraphModel%1,n&lt;/span&gt;" style="edgeLabel;html=1;align=center;verticalAlign=middle;resizable=0;points=[];" vertex="1" connectable="0" parent="zGR7t40iRB6UTrrgQn2q-40">
          <mxGeometry x="-0.0599" relative="1" as="geometry">
            <mxPoint as="offset" />
          </mxGeometry>
        </mxCell>
        <mxCell id="zGR7t40iRB6UTrrgQn2q-52" value="1,n" style="edgeLabel;html=1;align=center;verticalAlign=middle;resizable=0;points=[];" vertex="1" connectable="0" parent="zGR7t40iRB6UTrrgQn2q-40">
          <mxGeometry x="-0.0599" relative="1" as="geometry">
            <mxPoint as="offset" />
          </mxGeometry>
        </mxCell>
        <mxCell id="zGR7t40iRB6UTrrgQn2q-48" value="Modèle limité" style="text;align=center;fontStyle=1;verticalAlign=middle;spacingLeft=3;spacingRight=3;strokeColor=#b85450;rotatable=0;points=[[0,0.5],[1,0.5]];portConstraint=eastwest;html=1;fillColor=#f8cecc;" vertex="1" parent="1">
          <mxGeometry x="110" y="270" width="80" height="26" as="geometry" />
        </mxCell>
        <mxCell id="zGR7t40iRB6UTrrgQn2q-49" value="Modèle correct" style="text;align=center;fontStyle=1;verticalAlign=middle;spacingLeft=3;spacingRight=3;strokeColor=#b85450;rotatable=0;points=[[0,0.5],[1,0.5]];portConstraint=eastwest;html=1;fillColor=#f8cecc;" vertex="1" parent="1">
          <mxGeometry x="80" y="572" width="80" height="26" as="geometry" />
        </mxCell>
      </root>
    </mxGraphModel>
  </diagram>
  <diagram id="1lBo9xW3ye36eIgi44aG" name="Page-3">
    <mxGraphModel dx="1855" dy="619" grid="1" gridSize="10" guides="1" tooltips="1" connect="1" arrows="1" fold="1" page="1" pageScale="1" pageWidth="827" pageHeight="1169" math="0" shadow="0">
      <root>
        <mxCell id="0" />
        <mxCell id="1" parent="0" />
        <mxCell id="3AulzAUKX5KVoRx_d_hw-1" value="Reservation" style="swimlane;fontStyle=0;childLayout=stackLayout;horizontal=1;startSize=26;fillColor=none;horizontalStack=0;resizeParent=1;resizeParentMax=0;resizeLast=0;collapsible=1;marginBottom=0;whiteSpace=wrap;html=1;" vertex="1" parent="1">
          <mxGeometry x="90" y="281" width="140" height="78" as="geometry" />
        </mxCell>
        <mxCell id="3AulzAUKX5KVoRx_d_hw-2" value="id: int" style="text;strokeColor=none;fillColor=none;align=left;verticalAlign=top;spacingLeft=4;spacingRight=4;overflow=hidden;rotatable=0;points=[[0,0.5],[1,0.5]];portConstraint=eastwest;whiteSpace=wrap;html=1;" vertex="1" parent="3AulzAUKX5KVoRx_d_hw-1">
          <mxGeometry y="26" width="140" height="26" as="geometry" />
        </mxCell>
        <mxCell id="3AulzAUKX5KVoRx_d_hw-3" value="dateReservation: Date" style="text;strokeColor=none;fillColor=none;align=left;verticalAlign=top;spacingLeft=4;spacingRight=4;overflow=hidden;rotatable=0;points=[[0,0.5],[1,0.5]];portConstraint=eastwest;whiteSpace=wrap;html=1;" vertex="1" parent="3AulzAUKX5KVoRx_d_hw-1">
          <mxGeometry y="52" width="140" height="26" as="geometry" />
        </mxCell>
        <mxCell id="3AulzAUKX5KVoRx_d_hw-5" style="edgeStyle=orthogonalEdgeStyle;rounded=0;orthogonalLoop=1;jettySize=auto;html=1;endArrow=none;startFill=0;curved=1;" edge="1" parent="1" source="3AulzAUKX5KVoRx_d_hw-7" target="3AulzAUKX5KVoRx_d_hw-11">
          <mxGeometry relative="1" as="geometry" />
        </mxCell>
        <mxCell id="3AulzAUKX5KVoRx_d_hw-6" value="0,n" style="edgeLabel;html=1;align=center;verticalAlign=middle;resizable=0;points=[];" vertex="1" connectable="0" parent="3AulzAUKX5KVoRx_d_hw-5">
          <mxGeometry x="-0.1791" y="3" relative="1" as="geometry">
            <mxPoint as="offset" />
          </mxGeometry>
        </mxCell>
        <mxCell id="3AulzAUKX5KVoRx_d_hw-7" value="Voiture" style="swimlane;fontStyle=0;childLayout=stackLayout;horizontal=1;startSize=26;fillColor=none;horizontalStack=0;resizeParent=1;resizeParentMax=0;resizeLast=0;collapsible=1;marginBottom=0;whiteSpace=wrap;html=1;" vertex="1" parent="1">
          <mxGeometry x="570" y="261" width="140" height="104" as="geometry" />
        </mxCell>
        <mxCell id="3AulzAUKX5KVoRx_d_hw-8" value="id: int" style="text;strokeColor=none;fillColor=none;align=left;verticalAlign=top;spacingLeft=4;spacingRight=4;overflow=hidden;rotatable=0;points=[[0,0.5],[1,0.5]];portConstraint=eastwest;whiteSpace=wrap;html=1;" vertex="1" parent="3AulzAUKX5KVoRx_d_hw-7">
          <mxGeometry y="26" width="140" height="26" as="geometry" />
        </mxCell>
        <mxCell id="3AulzAUKX5KVoRx_d_hw-9" value="attr: string" style="text;strokeColor=none;fillColor=none;align=left;verticalAlign=top;spacingLeft=4;spacingRight=4;overflow=hidden;rotatable=0;points=[[0,0.5],[1,0.5]];portConstraint=eastwest;whiteSpace=wrap;html=1;" vertex="1" parent="3AulzAUKX5KVoRx_d_hw-7">
          <mxGeometry y="52" width="140" height="26" as="geometry" />
        </mxCell>
        <mxCell id="3AulzAUKX5KVoRx_d_hw-10" value="attr2: string" style="text;strokeColor=none;fillColor=none;align=left;verticalAlign=top;spacingLeft=4;spacingRight=4;overflow=hidden;rotatable=0;points=[[0,0.5],[1,0.5]];portConstraint=eastwest;whiteSpace=wrap;html=1;" vertex="1" parent="3AulzAUKX5KVoRx_d_hw-7">
          <mxGeometry y="78" width="140" height="26" as="geometry" />
        </mxCell>
        <mxCell id="3AulzAUKX5KVoRx_d_hw-11" value="concerne" style="ellipse;whiteSpace=wrap;html=1;" vertex="1" parent="1">
          <mxGeometry x="340" y="293" width="110" height="40" as="geometry" />
        </mxCell>
        <mxCell id="3AulzAUKX5KVoRx_d_hw-12" style="edgeStyle=orthogonalEdgeStyle;rounded=0;orthogonalLoop=1;jettySize=auto;html=1;endArrow=none;startFill=0;curved=1;" edge="1" parent="1" source="3AulzAUKX5KVoRx_d_hw-2" target="3AulzAUKX5KVoRx_d_hw-11">
          <mxGeometry relative="1" as="geometry" />
        </mxCell>
        <mxCell id="3AulzAUKX5KVoRx_d_hw-13" value="1,1" style="edgeLabel;html=1;align=center;verticalAlign=middle;resizable=0;points=[];" vertex="1" connectable="0" parent="3AulzAUKX5KVoRx_d_hw-12">
          <mxGeometry x="-0.302" y="2" relative="1" as="geometry">
            <mxPoint as="offset" />
          </mxGeometry>
        </mxCell>
        <mxCell id="3AulzAUKX5KVoRx_d_hw-14" value="Client" style="swimlane;fontStyle=0;childLayout=stackLayout;horizontal=1;startSize=26;fillColor=none;horizontalStack=0;resizeParent=1;resizeParentMax=0;resizeLast=0;collapsible=1;marginBottom=0;whiteSpace=wrap;html=1;" vertex="1" parent="1">
          <mxGeometry x="-290" y="268" width="140" height="104" as="geometry" />
        </mxCell>
        <mxCell id="3AulzAUKX5KVoRx_d_hw-15" value="id: int" style="text;strokeColor=none;fillColor=none;align=left;verticalAlign=top;spacingLeft=4;spacingRight=4;overflow=hidden;rotatable=0;points=[[0,0.5],[1,0.5]];portConstraint=eastwest;whiteSpace=wrap;html=1;" vertex="1" parent="3AulzAUKX5KVoRx_d_hw-14">
          <mxGeometry y="26" width="140" height="26" as="geometry" />
        </mxCell>
        <mxCell id="3AulzAUKX5KVoRx_d_hw-16" value="attr: string" style="text;strokeColor=none;fillColor=none;align=left;verticalAlign=top;spacingLeft=4;spacingRight=4;overflow=hidden;rotatable=0;points=[[0,0.5],[1,0.5]];portConstraint=eastwest;whiteSpace=wrap;html=1;" vertex="1" parent="3AulzAUKX5KVoRx_d_hw-14">
          <mxGeometry y="52" width="140" height="26" as="geometry" />
        </mxCell>
        <mxCell id="3AulzAUKX5KVoRx_d_hw-17" value="attr2: string" style="text;strokeColor=none;fillColor=none;align=left;verticalAlign=top;spacingLeft=4;spacingRight=4;overflow=hidden;rotatable=0;points=[[0,0.5],[1,0.5]];portConstraint=eastwest;whiteSpace=wrap;html=1;" vertex="1" parent="3AulzAUKX5KVoRx_d_hw-14">
          <mxGeometry y="78" width="140" height="26" as="geometry" />
        </mxCell>
        <mxCell id="3AulzAUKX5KVoRx_d_hw-18" style="edgeStyle=orthogonalEdgeStyle;rounded=0;orthogonalLoop=1;jettySize=auto;html=1;endArrow=none;startFill=0;curved=1;" edge="1" parent="1" source="3AulzAUKX5KVoRx_d_hw-1" target="3AulzAUKX5KVoRx_d_hw-20">
          <mxGeometry relative="1" as="geometry">
            <mxPoint x="520.8333333333333" y="492" as="sourcePoint" />
          </mxGeometry>
        </mxCell>
        <mxCell id="3AulzAUKX5KVoRx_d_hw-19" value="1,1" style="edgeLabel;html=1;align=center;verticalAlign=middle;resizable=0;points=[];" vertex="1" connectable="0" parent="3AulzAUKX5KVoRx_d_hw-18">
          <mxGeometry x="0.2292" y="2" relative="1" as="geometry">
            <mxPoint as="offset" />
          </mxGeometry>
        </mxCell>
        <mxCell id="3AulzAUKX5KVoRx_d_hw-20" value="fait" style="ellipse;whiteSpace=wrap;html=1;" vertex="1" parent="1">
          <mxGeometry x="-69.99666666666667" y="300" width="110" height="40" as="geometry" />
        </mxCell>
        <mxCell id="3AulzAUKX5KVoRx_d_hw-21" style="edgeStyle=orthogonalEdgeStyle;rounded=0;orthogonalLoop=1;jettySize=auto;html=1;endArrow=none;startFill=0;curved=1;" edge="1" parent="1" source="3AulzAUKX5KVoRx_d_hw-20" target="3AulzAUKX5KVoRx_d_hw-14">
          <mxGeometry relative="1" as="geometry">
            <mxPoint x="284.83333333333326" y="461.5" as="sourcePoint" />
            <mxPoint x="120" y="449.5" as="targetPoint" />
          </mxGeometry>
        </mxCell>
        <mxCell id="3AulzAUKX5KVoRx_d_hw-22" value="0,n" style="edgeLabel;html=1;align=center;verticalAlign=middle;resizable=0;points=[];" vertex="1" connectable="0" parent="3AulzAUKX5KVoRx_d_hw-21">
          <mxGeometry x="-0.0773" y="-1" relative="1" as="geometry">
            <mxPoint as="offset" />
          </mxGeometry>
        </mxCell>
        <mxCell id="3AulzAUKX5KVoRx_d_hw-27" style="edgeStyle=orthogonalEdgeStyle;rounded=0;orthogonalLoop=1;jettySize=auto;html=1;endArrow=none;startFill=0;curved=1;" edge="1" parent="1" source="3AulzAUKX5KVoRx_d_hw-29" target="3AulzAUKX5KVoRx_d_hw-33">
          <mxGeometry relative="1" as="geometry" />
        </mxCell>
        <mxCell id="3AulzAUKX5KVoRx_d_hw-28" value="0,n" style="edgeLabel;html=1;align=center;verticalAlign=middle;resizable=0;points=[];" vertex="1" connectable="0" parent="3AulzAUKX5KVoRx_d_hw-27">
          <mxGeometry x="-0.1791" y="3" relative="1" as="geometry">
            <mxPoint as="offset" />
          </mxGeometry>
        </mxCell>
        <mxCell id="3AulzAUKX5KVoRx_d_hw-29" value="Voiture" style="swimlane;fontStyle=0;childLayout=stackLayout;horizontal=1;startSize=26;fillColor=none;horizontalStack=0;resizeParent=1;resizeParentMax=0;resizeLast=0;collapsible=1;marginBottom=0;whiteSpace=wrap;html=1;" vertex="1" parent="1">
          <mxGeometry x="410" y="80" width="140" height="104" as="geometry" />
        </mxCell>
        <mxCell id="3AulzAUKX5KVoRx_d_hw-30" value="id: int" style="text;strokeColor=none;fillColor=none;align=left;verticalAlign=top;spacingLeft=4;spacingRight=4;overflow=hidden;rotatable=0;points=[[0,0.5],[1,0.5]];portConstraint=eastwest;whiteSpace=wrap;html=1;" vertex="1" parent="3AulzAUKX5KVoRx_d_hw-29">
          <mxGeometry y="26" width="140" height="26" as="geometry" />
        </mxCell>
        <mxCell id="3AulzAUKX5KVoRx_d_hw-31" value="attr: string" style="text;strokeColor=none;fillColor=none;align=left;verticalAlign=top;spacingLeft=4;spacingRight=4;overflow=hidden;rotatable=0;points=[[0,0.5],[1,0.5]];portConstraint=eastwest;whiteSpace=wrap;html=1;" vertex="1" parent="3AulzAUKX5KVoRx_d_hw-29">
          <mxGeometry y="52" width="140" height="26" as="geometry" />
        </mxCell>
        <mxCell id="3AulzAUKX5KVoRx_d_hw-32" value="attr2: string" style="text;strokeColor=none;fillColor=none;align=left;verticalAlign=top;spacingLeft=4;spacingRight=4;overflow=hidden;rotatable=0;points=[[0,0.5],[1,0.5]];portConstraint=eastwest;whiteSpace=wrap;html=1;" vertex="1" parent="3AulzAUKX5KVoRx_d_hw-29">
          <mxGeometry y="78" width="140" height="26" as="geometry" />
        </mxCell>
        <mxCell id="3AulzAUKX5KVoRx_d_hw-33" value="reserve&lt;div&gt;&lt;br&gt;&lt;/div&gt;&lt;div&gt;&lt;br&gt;&lt;/div&gt;&lt;div&gt;&lt;br&gt;&lt;/div&gt;&lt;div&gt;dateReservation&lt;/div&gt;" style="ellipse;whiteSpace=wrap;html=1;" vertex="1" parent="1">
          <mxGeometry x="60" y="70" width="110" height="140" as="geometry" />
        </mxCell>
        <mxCell id="3AulzAUKX5KVoRx_d_hw-36" value="Client" style="swimlane;fontStyle=0;childLayout=stackLayout;horizontal=1;startSize=26;fillColor=none;horizontalStack=0;resizeParent=1;resizeParentMax=0;resizeLast=0;collapsible=1;marginBottom=0;whiteSpace=wrap;html=1;" vertex="1" parent="1">
          <mxGeometry x="-230" y="70" width="140" height="104" as="geometry" />
        </mxCell>
        <mxCell id="3AulzAUKX5KVoRx_d_hw-37" value="id: int" style="text;strokeColor=none;fillColor=none;align=left;verticalAlign=top;spacingLeft=4;spacingRight=4;overflow=hidden;rotatable=0;points=[[0,0.5],[1,0.5]];portConstraint=eastwest;whiteSpace=wrap;html=1;" vertex="1" parent="3AulzAUKX5KVoRx_d_hw-36">
          <mxGeometry y="26" width="140" height="26" as="geometry" />
        </mxCell>
        <mxCell id="3AulzAUKX5KVoRx_d_hw-38" value="attr: string" style="text;strokeColor=none;fillColor=none;align=left;verticalAlign=top;spacingLeft=4;spacingRight=4;overflow=hidden;rotatable=0;points=[[0,0.5],[1,0.5]];portConstraint=eastwest;whiteSpace=wrap;html=1;" vertex="1" parent="3AulzAUKX5KVoRx_d_hw-36">
          <mxGeometry y="52" width="140" height="26" as="geometry" />
        </mxCell>
        <mxCell id="3AulzAUKX5KVoRx_d_hw-39" value="attr2: string" style="text;strokeColor=none;fillColor=none;align=left;verticalAlign=top;spacingLeft=4;spacingRight=4;overflow=hidden;rotatable=0;points=[[0,0.5],[1,0.5]];portConstraint=eastwest;whiteSpace=wrap;html=1;" vertex="1" parent="3AulzAUKX5KVoRx_d_hw-36">
          <mxGeometry y="78" width="140" height="26" as="geometry" />
        </mxCell>
        <mxCell id="3AulzAUKX5KVoRx_d_hw-43" style="edgeStyle=orthogonalEdgeStyle;rounded=0;orthogonalLoop=1;jettySize=auto;html=1;endArrow=none;startFill=0;curved=1;" edge="1" parent="1" source="3AulzAUKX5KVoRx_d_hw-33" target="3AulzAUKX5KVoRx_d_hw-36">
          <mxGeometry relative="1" as="geometry">
            <mxPoint x="-9.99666666666667" y="122" as="sourcePoint" />
            <mxPoint x="120" y="251.5" as="targetPoint" />
          </mxGeometry>
        </mxCell>
        <mxCell id="3AulzAUKX5KVoRx_d_hw-44" value="0,n" style="edgeLabel;html=1;align=center;verticalAlign=middle;resizable=0;points=[];" vertex="1" connectable="0" parent="3AulzAUKX5KVoRx_d_hw-43">
          <mxGeometry x="-0.0773" y="-1" relative="1" as="geometry">
            <mxPoint as="offset" />
          </mxGeometry>
        </mxCell>
        <mxCell id="3AulzAUKX5KVoRx_d_hw-45" value="" style="endArrow=none;html=1;rounded=0;entryX=1.002;entryY=0.389;entryDx=0;entryDy=0;entryPerimeter=0;exitX=0.013;exitY=0.383;exitDx=0;exitDy=0;exitPerimeter=0;" edge="1" parent="1" source="3AulzAUKX5KVoRx_d_hw-33" target="3AulzAUKX5KVoRx_d_hw-33">
          <mxGeometry width="50" height="50" relative="1" as="geometry">
            <mxPoint x="130" y="340" as="sourcePoint" />
            <mxPoint x="180" y="290" as="targetPoint" />
          </mxGeometry>
        </mxCell>
        <mxCell id="3AulzAUKX5KVoRx_d_hw-46" value="Text" style="text;html=1;align=center;verticalAlign=middle;whiteSpace=wrap;rounded=0;" vertex="1" parent="1">
          <mxGeometry x="170" y="110" width="60" height="30" as="geometry" />
        </mxCell>
        <mxCell id="3AulzAUKX5KVoRx_d_hw-47" value="MCD sans décomposition" style="text;html=1;align=center;verticalAlign=middle;whiteSpace=wrap;rounded=0;fillColor=#f8cecc;strokeColor=#b85450;" vertex="1" parent="1">
          <mxGeometry x="-280" y="30" width="200" height="30" as="geometry" />
        </mxCell>
        <mxCell id="3AulzAUKX5KVoRx_d_hw-49" value="MCD avec décomposition" style="text;html=1;align=center;verticalAlign=middle;whiteSpace=wrap;rounded=0;fillColor=#dae8fc;strokeColor=#6c8ebf;" vertex="1" parent="1">
          <mxGeometry x="-280" y="210" width="200" height="30" as="geometry" />
        </mxCell>
        <mxCell id="3AulzAUKX5KVoRx_d_hw-50" value="MLD sans décomposition" style="text;html=1;align=center;verticalAlign=middle;whiteSpace=wrap;rounded=0;fillColor=#f8cecc;strokeColor=#b85450;" vertex="1" parent="1">
          <mxGeometry x="-270" y="430" width="200" height="30" as="geometry" />
        </mxCell>
        <mxCell id="3AulzAUKX5KVoRx_d_hw-52" value="Client" style="swimlane;fontStyle=0;childLayout=stackLayout;horizontal=1;startSize=26;fillColor=none;horizontalStack=0;resizeParent=1;resizeParentMax=0;resizeLast=0;collapsible=1;marginBottom=0;whiteSpace=wrap;html=1;" vertex="1" parent="1">
          <mxGeometry x="-250" y="481" width="140" height="104" as="geometry" />
        </mxCell>
        <mxCell id="3AulzAUKX5KVoRx_d_hw-53" value="id: int" style="text;strokeColor=#d6b656;fillColor=#fff2cc;align=left;verticalAlign=top;spacingLeft=4;spacingRight=4;overflow=hidden;rotatable=0;points=[[0,0.5],[1,0.5]];portConstraint=eastwest;whiteSpace=wrap;html=1;fontStyle=1" vertex="1" parent="3AulzAUKX5KVoRx_d_hw-52">
          <mxGeometry y="26" width="140" height="26" as="geometry" />
        </mxCell>
        <mxCell id="3AulzAUKX5KVoRx_d_hw-54" value="attr: string" style="text;strokeColor=none;fillColor=none;align=left;verticalAlign=top;spacingLeft=4;spacingRight=4;overflow=hidden;rotatable=0;points=[[0,0.5],[1,0.5]];portConstraint=eastwest;whiteSpace=wrap;html=1;" vertex="1" parent="3AulzAUKX5KVoRx_d_hw-52">
          <mxGeometry y="52" width="140" height="26" as="geometry" />
        </mxCell>
        <mxCell id="3AulzAUKX5KVoRx_d_hw-55" value="attr2: string" style="text;strokeColor=none;fillColor=none;align=left;verticalAlign=top;spacingLeft=4;spacingRight=4;overflow=hidden;rotatable=0;points=[[0,0.5],[1,0.5]];portConstraint=eastwest;whiteSpace=wrap;html=1;" vertex="1" parent="3AulzAUKX5KVoRx_d_hw-52">
          <mxGeometry y="78" width="140" height="26" as="geometry" />
        </mxCell>
        <mxCell id="3AulzAUKX5KVoRx_d_hw-56" value="Voiture" style="swimlane;fontStyle=0;childLayout=stackLayout;horizontal=1;startSize=26;fillColor=none;horizontalStack=0;resizeParent=1;resizeParentMax=0;resizeLast=0;collapsible=1;marginBottom=0;whiteSpace=wrap;html=1;" vertex="1" parent="1">
          <mxGeometry x="300" y="470" width="140" height="104" as="geometry" />
        </mxCell>
        <mxCell id="3AulzAUKX5KVoRx_d_hw-57" value="id: int" style="text;strokeColor=#d6b656;fillColor=#fff2cc;align=left;verticalAlign=top;spacingLeft=4;spacingRight=4;overflow=hidden;rotatable=0;points=[[0,0.5],[1,0.5]];portConstraint=eastwest;whiteSpace=wrap;html=1;fontStyle=1" vertex="1" parent="3AulzAUKX5KVoRx_d_hw-56">
          <mxGeometry y="26" width="140" height="26" as="geometry" />
        </mxCell>
        <mxCell id="3AulzAUKX5KVoRx_d_hw-58" value="attr: string" style="text;strokeColor=none;fillColor=none;align=left;verticalAlign=top;spacingLeft=4;spacingRight=4;overflow=hidden;rotatable=0;points=[[0,0.5],[1,0.5]];portConstraint=eastwest;whiteSpace=wrap;html=1;" vertex="1" parent="3AulzAUKX5KVoRx_d_hw-56">
          <mxGeometry y="52" width="140" height="26" as="geometry" />
        </mxCell>
        <mxCell id="3AulzAUKX5KVoRx_d_hw-59" value="attr2: string" style="text;strokeColor=none;fillColor=none;align=left;verticalAlign=top;spacingLeft=4;spacingRight=4;overflow=hidden;rotatable=0;points=[[0,0.5],[1,0.5]];portConstraint=eastwest;whiteSpace=wrap;html=1;" vertex="1" parent="3AulzAUKX5KVoRx_d_hw-56">
          <mxGeometry y="78" width="140" height="26" as="geometry" />
        </mxCell>
        <mxCell id="3AulzAUKX5KVoRx_d_hw-60" value="ClientVoiture" style="swimlane;fontStyle=0;childLayout=stackLayout;horizontal=1;startSize=26;horizontalStack=0;resizeParent=1;resizeParentMax=0;resizeLast=0;collapsible=1;marginBottom=0;whiteSpace=wrap;html=1;" vertex="1" parent="1">
          <mxGeometry x="10" y="510" width="140" height="130" as="geometry" />
        </mxCell>
        <mxCell id="3AulzAUKX5KVoRx_d_hw-61" value="id: int" style="text;strokeColor=#d6b656;fillColor=#fff2cc;align=left;verticalAlign=top;spacingLeft=4;spacingRight=4;overflow=hidden;rotatable=0;points=[[0,0.5],[1,0.5]];portConstraint=eastwest;whiteSpace=wrap;html=1;" vertex="1" parent="3AulzAUKX5KVoRx_d_hw-60">
          <mxGeometry y="26" width="140" height="26" as="geometry" />
        </mxCell>
        <mxCell id="3AulzAUKX5KVoRx_d_hw-68" value="dateReservation: Date" style="text;align=left;verticalAlign=top;spacingLeft=4;spacingRight=4;overflow=hidden;rotatable=0;points=[[0,0.5],[1,0.5]];portConstraint=eastwest;whiteSpace=wrap;html=1;" vertex="1" parent="3AulzAUKX5KVoRx_d_hw-60">
          <mxGeometry y="52" width="140" height="26" as="geometry" />
        </mxCell>
        <mxCell id="3AulzAUKX5KVoRx_d_hw-62" value="idClient: int" style="text;strokeColor=#82b366;fillColor=#d5e8d4;align=left;verticalAlign=top;spacingLeft=4;spacingRight=4;overflow=hidden;rotatable=0;points=[[0,0.5],[1,0.5]];portConstraint=eastwest;whiteSpace=wrap;html=1;" vertex="1" parent="3AulzAUKX5KVoRx_d_hw-60">
          <mxGeometry y="78" width="140" height="26" as="geometry" />
        </mxCell>
        <mxCell id="3AulzAUKX5KVoRx_d_hw-63" value="idVoiture: int" style="text;strokeColor=#82b366;fillColor=#d5e8d4;align=left;verticalAlign=top;spacingLeft=4;spacingRight=4;overflow=hidden;rotatable=0;points=[[0,0.5],[1,0.5]];portConstraint=eastwest;whiteSpace=wrap;html=1;" vertex="1" parent="3AulzAUKX5KVoRx_d_hw-60">
          <mxGeometry y="104" width="140" height="26" as="geometry" />
        </mxCell>
        <mxCell id="3AulzAUKX5KVoRx_d_hw-64" style="edgeStyle=orthogonalEdgeStyle;rounded=0;orthogonalLoop=1;jettySize=auto;html=1;endArrow=none;startFill=0;curved=1;" edge="1" parent="1" source="3AulzAUKX5KVoRx_d_hw-60" target="3AulzAUKX5KVoRx_d_hw-52">
          <mxGeometry relative="1" as="geometry">
            <mxPoint x="80" y="370" as="sourcePoint" />
            <mxPoint y="370" as="targetPoint" />
          </mxGeometry>
        </mxCell>
        <mxCell id="3AulzAUKX5KVoRx_d_hw-66" style="edgeStyle=orthogonalEdgeStyle;rounded=0;orthogonalLoop=1;jettySize=auto;html=1;endArrow=none;startFill=0;curved=1;" edge="1" parent="1" source="3AulzAUKX5KVoRx_d_hw-56" target="3AulzAUKX5KVoRx_d_hw-60">
          <mxGeometry relative="1" as="geometry">
            <mxPoint x="140" y="559" as="sourcePoint" />
            <mxPoint x="20" y="530" as="targetPoint" />
          </mxGeometry>
        </mxCell>
        <mxCell id="3AulzAUKX5KVoRx_d_hw-71" value="MLD avec décomposition" style="text;html=1;align=center;verticalAlign=middle;whiteSpace=wrap;rounded=0;fillColor=#dae8fc;strokeColor=#6c8ebf;" vertex="1" parent="1">
          <mxGeometry x="-280" y="690" width="200" height="30" as="geometry" />
        </mxCell>
        <mxCell id="3AulzAUKX5KVoRx_d_hw-72" value="Client" style="swimlane;fontStyle=0;childLayout=stackLayout;horizontal=1;startSize=26;fillColor=none;horizontalStack=0;resizeParent=1;resizeParentMax=0;resizeLast=0;collapsible=1;marginBottom=0;whiteSpace=wrap;html=1;" vertex="1" parent="1">
          <mxGeometry x="-250" y="753" width="140" height="104" as="geometry" />
        </mxCell>
        <mxCell id="3AulzAUKX5KVoRx_d_hw-73" value="id: int" style="text;strokeColor=#d6b656;fillColor=#fff2cc;align=left;verticalAlign=top;spacingLeft=4;spacingRight=4;overflow=hidden;rotatable=0;points=[[0,0.5],[1,0.5]];portConstraint=eastwest;whiteSpace=wrap;html=1;" vertex="1" parent="3AulzAUKX5KVoRx_d_hw-72">
          <mxGeometry y="26" width="140" height="26" as="geometry" />
        </mxCell>
        <mxCell id="3AulzAUKX5KVoRx_d_hw-74" value="attr: string" style="text;strokeColor=none;fillColor=none;align=left;verticalAlign=top;spacingLeft=4;spacingRight=4;overflow=hidden;rotatable=0;points=[[0,0.5],[1,0.5]];portConstraint=eastwest;whiteSpace=wrap;html=1;" vertex="1" parent="3AulzAUKX5KVoRx_d_hw-72">
          <mxGeometry y="52" width="140" height="26" as="geometry" />
        </mxCell>
        <mxCell id="3AulzAUKX5KVoRx_d_hw-75" value="attr2: string" style="text;strokeColor=none;fillColor=none;align=left;verticalAlign=top;spacingLeft=4;spacingRight=4;overflow=hidden;rotatable=0;points=[[0,0.5],[1,0.5]];portConstraint=eastwest;whiteSpace=wrap;html=1;" vertex="1" parent="3AulzAUKX5KVoRx_d_hw-72">
          <mxGeometry y="78" width="140" height="26" as="geometry" />
        </mxCell>
        <mxCell id="3AulzAUKX5KVoRx_d_hw-79" value="Reservation" style="swimlane;fontStyle=0;childLayout=stackLayout;horizontal=1;startSize=26;fillColor=none;horizontalStack=0;resizeParent=1;resizeParentMax=0;resizeLast=0;collapsible=1;marginBottom=0;whiteSpace=wrap;html=1;" vertex="1" parent="1">
          <mxGeometry x="70" y="766" width="140" height="130" as="geometry" />
        </mxCell>
        <mxCell id="3AulzAUKX5KVoRx_d_hw-80" value="id: int" style="text;strokeColor=#d6b656;fillColor=#fff2cc;align=left;verticalAlign=top;spacingLeft=4;spacingRight=4;overflow=hidden;rotatable=0;points=[[0,0.5],[1,0.5]];portConstraint=eastwest;whiteSpace=wrap;html=1;" vertex="1" parent="3AulzAUKX5KVoRx_d_hw-79">
          <mxGeometry y="26" width="140" height="26" as="geometry" />
        </mxCell>
        <mxCell id="3AulzAUKX5KVoRx_d_hw-81" value="dateReservation: Date" style="text;strokeColor=none;fillColor=none;align=left;verticalAlign=top;spacingLeft=4;spacingRight=4;overflow=hidden;rotatable=0;points=[[0,0.5],[1,0.5]];portConstraint=eastwest;whiteSpace=wrap;html=1;" vertex="1" parent="3AulzAUKX5KVoRx_d_hw-79">
          <mxGeometry y="52" width="140" height="26" as="geometry" />
        </mxCell>
        <mxCell id="3AulzAUKX5KVoRx_d_hw-89" value="idClient: int" style="text;strokeColor=#82b366;fillColor=#d5e8d4;align=left;verticalAlign=top;spacingLeft=4;spacingRight=4;overflow=hidden;rotatable=0;points=[[0,0.5],[1,0.5]];portConstraint=eastwest;whiteSpace=wrap;html=1;" vertex="1" parent="3AulzAUKX5KVoRx_d_hw-79">
          <mxGeometry y="78" width="140" height="26" as="geometry" />
        </mxCell>
        <mxCell id="3AulzAUKX5KVoRx_d_hw-90" value="idVoiture: int" style="text;strokeColor=#82b366;fillColor=#d5e8d4;align=left;verticalAlign=top;spacingLeft=4;spacingRight=4;overflow=hidden;rotatable=0;points=[[0,0.5],[1,0.5]];portConstraint=eastwest;whiteSpace=wrap;html=1;" vertex="1" parent="3AulzAUKX5KVoRx_d_hw-79">
          <mxGeometry y="104" width="140" height="26" as="geometry" />
        </mxCell>
        <mxCell id="3AulzAUKX5KVoRx_d_hw-82" value="Voiture" style="swimlane;fontStyle=0;childLayout=stackLayout;horizontal=1;startSize=26;fillColor=none;horizontalStack=0;resizeParent=1;resizeParentMax=0;resizeLast=0;collapsible=1;marginBottom=0;whiteSpace=wrap;html=1;" vertex="1" parent="1">
          <mxGeometry x="390" y="760" width="140" height="104" as="geometry" />
        </mxCell>
        <mxCell id="3AulzAUKX5KVoRx_d_hw-83" value="id: int" style="text;strokeColor=#d6b656;fillColor=#fff2cc;align=left;verticalAlign=top;spacingLeft=4;spacingRight=4;overflow=hidden;rotatable=0;points=[[0,0.5],[1,0.5]];portConstraint=eastwest;whiteSpace=wrap;html=1;" vertex="1" parent="3AulzAUKX5KVoRx_d_hw-82">
          <mxGeometry y="26" width="140" height="26" as="geometry" />
        </mxCell>
        <mxCell id="3AulzAUKX5KVoRx_d_hw-84" value="attr: string" style="text;strokeColor=none;fillColor=none;align=left;verticalAlign=top;spacingLeft=4;spacingRight=4;overflow=hidden;rotatable=0;points=[[0,0.5],[1,0.5]];portConstraint=eastwest;whiteSpace=wrap;html=1;" vertex="1" parent="3AulzAUKX5KVoRx_d_hw-82">
          <mxGeometry y="52" width="140" height="26" as="geometry" />
        </mxCell>
        <mxCell id="3AulzAUKX5KVoRx_d_hw-85" value="attr2: string" style="text;strokeColor=none;fillColor=none;align=left;verticalAlign=top;spacingLeft=4;spacingRight=4;overflow=hidden;rotatable=0;points=[[0,0.5],[1,0.5]];portConstraint=eastwest;whiteSpace=wrap;html=1;" vertex="1" parent="3AulzAUKX5KVoRx_d_hw-82">
          <mxGeometry y="78" width="140" height="26" as="geometry" />
        </mxCell>
        <mxCell id="3AulzAUKX5KVoRx_d_hw-86" value="" style="endArrow=none;html=1;rounded=0;" edge="1" parent="1" source="3AulzAUKX5KVoRx_d_hw-72" target="3AulzAUKX5KVoRx_d_hw-79">
          <mxGeometry width="50" height="50" relative="1" as="geometry">
            <mxPoint x="120" y="550" as="sourcePoint" />
            <mxPoint x="170" y="500" as="targetPoint" />
          </mxGeometry>
        </mxCell>
        <mxCell id="3AulzAUKX5KVoRx_d_hw-87" value="" style="endArrow=none;html=1;rounded=0;" edge="1" parent="1" source="3AulzAUKX5KVoRx_d_hw-79" target="3AulzAUKX5KVoRx_d_hw-82">
          <mxGeometry width="50" height="50" relative="1" as="geometry">
            <mxPoint x="180" y="580" as="sourcePoint" />
            <mxPoint x="360" y="587" as="targetPoint" />
          </mxGeometry>
        </mxCell>
      </root>
    </mxGraphModel>
  </diagram>
</mxfile>
